#!OML:ASF F:\VICON\USERDATA\INSTALL\rory3\rory3.ASF
:FULLY-SPECIFIED
:DEGREES
27
root -5.966717917508243 17.67578433642503 2.525657042966918 -7.104473662232621 40.36318597430253 -19.576745573327997
lfemur -4.20354886560307 19.62723368782724 7.232461764600908
ltibia 33.70605437073978
lfoot -3.9225155370873495 17.86461353188973
ltoes -25.23391242378843
rfemur -28.804409389919932 17.170028695416296 27.551073036382316
rtibia 29.671055207714353
rfoot -5.776035714147176 23.205403428639492
rtoes 37.54669222140559
lowerback 0.06856907307956339 -8.143972599728553 -13.753433304822504
upperback 0.048751538990704724 -10.805404212638308 -3.9500213810426463
thorax 2.510372495342095 -5.511003551505215 3.6416080164858693
lowerneck -6.066678490124553 19.516333247191756 1.829336005517328
upperneck 18.691977805892186 29.522307684189574 -11.17283009383006
head 9.089771590039811 13.10300052030829 -1.1587725369876256
lclavicle -4.460305507872094e-15 -9.73404778693198e-15
lhumerus 98.647792027158 -50.40340671373404 36.398991557109596
lradius 31.46007990289931
lwrist 2.390159681421167
lhand -14.578794075940205 1.6466551176721325
lfingers 7.125020000000001
lthumb -168.4387774378368 69.37721102178314
rclavicle -4.460305507872094e-15 -9.73404778693198e-15
rhumerus 13.686298561562158 -11.384220445753911 -79.24627118203696
rradius 100.01830143538722
rwrist -15.808943476528981
rhand -62.953583025449404 29.508160289781614
rfingers 7.125020000000001
rthumb -34.971327409812965 2.3877587090718713
28
root -5.945314375791831 17.68455862401925 2.6693356582209864 -5.616394736159748 39.46217647068835 -18.158586850727602
lfemur -3.2744969307998932 19.67652457508442 7.327906356220284
ltibia 33.54778192590621
lfoot -2.8661639320063 18.322340218730673
ltoes -25.295284125761377
rfemur -28.87085157814601 17.809994087371656 27.508877536276273
rtibia 30.0507519163389
rfoot -5.606577543476743 24.352105278697636
rtoes 39.70151911565262
lowerback 0.09240600819183031 -8.53646546108146 -14.043752141808568
upperback -0.3089347497903039 -11.42285842526335 -4.207845283653205
thorax 2.1837451004548374 -5.787994971270516 3.606040994207212
lowerneck -5.963337769224898 19.919664887805332 1.348941204064904
upperneck 17.51287456635458 29.897973270546693 -11.411430638953162
head 8.640979665810656 13.363579199088273 -1.1923027288619905
lclavicle -4.3972709999724754e-15 -9.699400189706335e-15
lhumerus 100.21410057869775 -49.04160846018077 37.56039353368368
lradius 32.15189458237619
lwrist 2.331753737939911
lhand -16.113332118697382 1.476818003991248
lfingers 7.125020000000001
lthumb -169.91837057616095 70.08475732031675
rclavicle -4.3972709999724754e-15 -9.699400189706335e-15
rhumerus 16.373794373290924 -12.440602001832325 -77.16375126355975
rradius 101.48795316412065
rwrist -12.305204179936922
rhand -62.6772496490088 31.283718316513387
rfingers 7.125020000000001
rthumb -34.711233709978984 4.05632122442001
29
root -5.937859383294421 17.696007112271012 2.8084224710198153 -4.8436821016585725 38.689951130874974 -17.380832081278555
lfemur -2.4070466621890567 19.775655039344144 7.349062386396451
ltibia 33.4113455468016
lfoot -2.154590319785896 18.328804836166448
ltoes -26.859770449581582
rfemur -29.295959004628067 18.419537924156224 27.222505990754005
rtibia 30.3439332626825
rfoot -5.80704611440317 25.32358587103591
rtoes 41.39276974464131
lowerback 0.1937069091780681 -8.959902229366168 -14.278648700718515
upperback -0.6365639068208062 -12.071231437900806 -4.3292683900154945
thorax 1.865894122414654 -6.06591418869086 3.5771374298589227
lowerneck -5.946525980631193 20.234656077303825 0.9968891070758678
upperneck 16.513170246978934 30.179715646490063 -11.69105337314797
head 8.29424664177959 13.558945827755295 -1.2336268198530143
lclavicle -4.773491299482484e-15 -1.004361305876824e-14
lhumerus 102.1824080838964 -48.462544351863464 38.240815035913734
lradius 32.98963878075089
lwrist 2.030624993828516
lhand -17.955428473599188 0.9986829812627818
lfingers 7.125020000000001
lthumb -171.6921012241589 70.13330975796154
rclavicle -4.7734912994824835e-15 -1.0043613058768238e-14
rhumerus 18.477667125836586 -13.727971213357495 -75.13192933303225
rradius 103.12893433638601
rwrist -9.439194944257356
rhand -62.61820569120801 32.23239760418848
rfingers 7.125020000000001
rthumb -34.66053805663445 4.94140107461288
30
root -5.927235783099922 17.70760306849246 2.948705549037998 -2.182748689418247 38.20788667580325 -14.80941055782047
lfemur -1.8226958696312145 20.2648729675857 7.397340914391998
ltibia 33.48631577841802
lfoot -1.2786438850113182 18.562067571800654
ltoes -27.608725820795904
rfemur -29.59996422854495 19.083899391220328 27.12998802077544
rtibia 30.7014634556865
rfoot -5.883017128755891 26.332071992129244
rtoes 42.43297110112492
lowerback 0.45208109555141407 -9.283871144247646 -14.42918974145334
upperback -0.8531361591843778 -12.59118741055438 -4.4351282952897435
thorax 1.582392677782337 -6.292620613745445 3.6034739305879135
lowerneck -5.999293878466766 20.76042785784143 0.6098090996969173
upperneck 15.431514454941162 30.755671132606736 -11.87955957712849
head 7.967023966520363 13.875167765396142 -1.243291947465547
lclavicle -4.3593867962858415e-15 -9.699262780748175e-15
lhumerus 104.45526040130531 -46.91506142512458 38.93012658969526
lradius 33.907345543145595
lwrist 2.076917546034812
lhand -19.317006042629853 -0.2121658982711132
lfingers 7.125020000000001
lthumb -173.00413627375187 72.50811267384489
rclavicle -4.3593867962858415e-15 -9.699262780748175e-15
rhumerus 21.6027275295756 -14.948661174496461 -72.49364042042806
rradius 104.58401880944005
rwrist -5.57574891330586
rhand -62.40894051784956 33.31506098618131
rfingers 7.125020000000001
rthumb -34.46321655405372 5.978989402879815
